<svg width="26" height="22" viewBox="0 0 26 22" fill="none" xmlns="http://www.w3.org/2000/svg">
<path fill-rule="evenodd" clip-rule="evenodd" d="M10.8525 0C11.6859 0 12.5192 0.30963 13.3525 0.928889C14.1859 0.30963 15.0192 0 15.8525 0H23.3525C24.0156 0 24.6515 0.257539 25.1203 0.715961C25.5891 1.17438 25.8525 1.79614 25.8525 2.44444V18.3333C25.8525 18.9816 25.5891 19.6034 25.1203 20.0618C24.6515 20.5202 24.0156 20.7778 23.3525 20.7778H14.6025C14.6025 21.4524 14.04 22 13.3525 22C12.665 22 12.1025 21.45 12.1025 20.7778H3.35254C2.6895 20.7778 2.05361 20.5202 1.58477 20.0618C1.11593 19.6034 0.852539 18.9816 0.852539 18.3333V2.44444C0.852539 1.79614 1.11593 1.17438 1.58477 0.715961C2.05361 0.257539 2.6895 0 3.35254 0H10.8525ZM10.8525 2.44444H3.35254V18.3333H12.1025V3.66667C12.1025 2.99444 11.54 2.44444 10.8525 2.44444ZM23.3525 2.44444H15.8525C15.165 2.44444 14.6025 2.99444 14.6025 3.66667V18.3333H23.3525V2.44444Z" fill="white"/>
</svg>
