<svg width="20" height="13" viewBox="0 0 20 13" fill="none" xmlns="http://www.w3.org/2000/svg">
<path d="M1 7.5C4.6 -0.5 15.4 -0.5 19 7.5" stroke="#4D3677" stroke-width="1.5" stroke-linecap="round" stroke-linejoin="round"/>
<path d="M10 11.5C9.60603 11.5 9.21593 11.4224 8.85195 11.2716C8.48797 11.1209 8.15726 10.8999 7.87868 10.6213C7.6001 10.3427 7.37913 10.012 7.22836 9.64805C7.0776 9.28407 7 8.89397 7 8.5C7 8.10603 7.0776 7.71593 7.22836 7.35195C7.37913 6.98797 7.6001 6.65726 7.87868 6.37868C8.15726 6.1001 8.48797 5.87913 8.85195 5.72836C9.21593 5.5776 9.60603 5.5 10 5.5C10.7956 5.5 11.5587 5.81607 12.1213 6.37868C12.6839 6.94129 13 7.70435 13 8.5C13 9.29565 12.6839 10.0587 12.1213 10.6213C11.5587 11.1839 10.7956 11.5 10 11.5Z" stroke="#4D3677" stroke-width="1.5" stroke-linecap="round" stroke-linejoin="round"/>
</svg>
