<svg width="24" height="26" viewBox="0 0 24 26" fill="none" xmlns="http://www.w3.org/2000/svg">
<path d="M17.009 14.08C18.8976 14.9715 20.5079 16.3602 21.6673 18.0972C22.8267 19.8343 23.4914 21.8541 23.5902 23.9402C23.6034 24.1313 23.5782 24.3231 23.5162 24.5043C23.4543 24.6855 23.3567 24.8526 23.2293 24.9956C23.1019 25.1386 22.9473 25.2548 22.7744 25.3372C22.6015 25.4196 22.4139 25.4667 22.2225 25.4756C22.0312 25.4846 21.84 25.4552 21.6602 25.3893C21.4804 25.3233 21.3155 25.2221 21.1754 25.0916C21.0352 24.9611 20.9225 24.8039 20.8439 24.6292C20.7653 24.4545 20.7224 24.2659 20.7177 24.0744C20.6131 21.8587 19.6593 19.7683 18.0543 18.2373C16.4493 16.7062 14.3163 15.852 12.0981 15.852C9.87993 15.852 7.74693 16.7062 6.14191 18.2373C4.53688 19.7683 3.58311 21.8587 3.47857 24.0744C3.45274 24.4495 3.28108 24.7995 3.00036 25.0495C2.71964 25.2996 2.35217 25.4298 1.97665 25.4122C1.60112 25.3947 1.2474 25.2308 0.991218 24.9557C0.735038 24.6805 0.596772 24.316 0.606027 23.9402C0.704648 21.8543 1.36909 19.8346 2.52811 18.0976C3.68714 16.3606 5.29705 14.9718 7.18526 14.08C5.97529 13.0707 5.10557 11.7133 4.69442 10.1922C4.28326 8.67119 4.35063 7.06041 4.88735 5.57902C5.42407 4.09762 6.4041 2.81751 7.69412 1.91282C8.98413 1.00812 10.5215 0.522766 12.0971 0.522766C13.6728 0.522766 15.2102 1.00812 16.5002 1.91282C17.7902 2.81751 18.7702 4.09762 19.307 5.57902C19.8437 7.06041 19.911 8.67119 19.4999 10.1922C19.0887 11.7133 18.219 13.0707 17.009 14.08ZM16.8921 8.18725C16.8921 6.91581 16.387 5.69645 15.488 4.79741C14.5889 3.89837 13.3695 3.39329 12.0981 3.39329C10.8267 3.39329 9.60731 3.89837 8.70827 4.79741C7.80923 5.69645 7.30415 6.91581 7.30415 8.18725C7.30415 9.45869 7.80923 10.678 8.70827 11.5771C9.60731 12.4761 10.8267 12.9812 12.0981 12.9812C13.3695 12.9812 14.5889 12.4761 15.488 11.5771C16.387 10.678 16.8921 9.45869 16.8921 8.18725Z" fill="#4D3677"/>
</svg>
