<svg width="28" height="28" viewBox="0 0 28 28" fill="none" xmlns="http://www.w3.org/2000/svg">
<path d="M24.7524 11.4148C24.7524 11.2026 24.7106 10.9925 24.6294 10.7964C24.5482 10.6004 24.4292 10.4222 24.2791 10.2722C24.1291 10.1222 23.951 10.0031 23.7549 9.92193C23.5589 9.84072 23.3488 9.79893 23.1366 9.79893C22.9244 9.79893 22.7142 9.84072 22.5182 9.92193C22.3222 10.0031 22.144 10.1222 21.994 10.2722C21.8439 10.4222 21.7249 10.6004 21.6437 10.7964C21.5625 10.9925 21.5207 11.2026 21.5207 11.4148H24.7524ZM6.65491 11.4148C6.65491 10.9862 6.48467 10.5752 6.18164 10.2722C5.87861 9.96917 5.46761 9.79893 5.03906 9.79893C4.61051 9.79893 4.19952 9.96917 3.89649 10.2722C3.59346 10.5752 3.42322 10.9862 3.42322 11.4148H6.65491ZM24.5792 15.1429C24.8823 15.4459 25.2933 15.6162 25.7219 15.6162C26.1505 15.6162 26.5616 15.4459 26.8646 15.1429C27.1677 14.8398 27.338 14.4287 27.338 14.0001C27.338 13.5715 27.1677 13.1605 26.8646 12.8574L24.5792 15.1429ZM14.0878 2.36603L15.2305 1.2233C15.0805 1.07321 14.9023 0.954148 14.7063 0.872918C14.5102 0.791687 14.3 0.749878 14.0878 0.749878C13.8756 0.749878 13.6654 0.791687 13.4694 0.872918C13.2733 0.954148 13.0951 1.07321 12.9451 1.2233L14.0878 2.36603ZM1.31098 12.8574C1.00791 13.1605 0.837646 13.5715 0.837646 14.0001C0.837646 14.4287 1.00791 14.8398 1.31098 15.1429C1.61405 15.4459 2.0251 15.6162 2.45371 15.6162C2.88231 15.6162 3.29336 15.4459 3.59644 15.1429L1.31098 12.8574ZM7.62442 27.2501H20.5512V24.0184H7.62442V27.2501ZM24.7524 23.0489V11.4148H21.5207V23.0489H24.7524ZM6.65491 23.0489V11.4148H3.42322V23.0489H6.65491ZM26.8646 12.8574L15.2305 1.2233L12.9451 3.50875L24.5792 15.1429L26.8646 12.8574ZM12.9451 1.2233L1.31098 12.8574L3.59644 15.1429L15.2305 3.50875L12.9451 1.2233ZM20.5512 27.2501C21.6654 27.2501 22.734 26.8075 23.5219 26.0196C24.3098 25.2317 24.7524 24.1631 24.7524 23.0489H21.5207C21.5207 23.306 21.4186 23.5526 21.2368 23.7344C21.0549 23.9162 20.8083 24.0184 20.5512 24.0184V27.2501ZM7.62442 24.0184C7.36729 24.0184 7.12069 23.9162 6.93887 23.7344C6.75706 23.5526 6.65491 23.306 6.65491 23.0489H3.42322C3.42322 24.1631 3.86584 25.2317 4.65372 26.0196C5.4416 26.8075 6.51019 27.2501 7.62442 27.2501V24.0184Z" fill="white"/>
</svg>
