<?xml version="1.0" encoding="UTF-8"?>
<svg id="Calque_2" data-name="Calque 2" xmlns="http://www.w3.org/2000/svg" viewBox="0 0 364.9 193.42">
  <defs>
    <style>
      .cls-1 {
        fill: #f9b000;
      }

      .cls-2 {
        fill: #4d3677;
      }
    </style>
  </defs>
  <g id="Calque_4" data-name="Calque 4">
    <g>
      <path class="cls-1" d="M364.9,10.5v27.3c0,4.8-3.9,8.7-8.7,8.7h-29.5v84.5c1.9,81.1-133.1,84-137.5,2.4l-.1-36.4c15.6.9,32.7-7.5,44.7-21.3v43.9c0,35.4,48.2,35.4,48.2,0l-.1-73.1h-26.4c-4.8,0-8.7-3.9-8.7-8.7V10.5c0-4.8,3.9-8.7,8.7-8.7h100.7c4.8,0,8.7,3.9,8.7,8.7Z"/>
      <path class="cls-2" d="M233.8,71.3v4.9c-12,13.8-29.1,22-44.7,21.1v-14.6c0-35.3-48.1-35.3-48.2.1l.1,48.4c2,81.9-135.6,84-137.6,0V61.1c6.5,3.8,14.1,6,22.3,6s15.8-2.2,22.4-6v58.6c-.1,35.4,48.1,35.4,48.2,0l-.1-48.4c-1.9-82,135.6-84.1,137.6,0Z"/>
      <circle class="cls-2" cx="25" cy="25" r="25"/>
      <circle class="cls-1" cx="165.1" cy="86.9" r="12.8"/>
    </g>
  </g>
</svg>